<svg width="1773" height="2500" viewBox="0 0 1773 2500" fill="none" xmlns="http://www.w3.org/2000/svg">
<path d="M1769.77 490.069L1608.82 2293.12L885.347 2493.68L163.865 2293.39L3.08203 490.069H1769.77Z" fill="#563D7C"/>
<path d="M886.426 2340.37L1471.03 2178.3L1608.57 637.514H886.426V2340.37Z" fill="#724DAB"/>
<path d="M673.525 1240.54L478 1233.68L478 951.43L906.381 849L907.344 849.226V1036.65L906.427 1036.44L673.525 1090.61V1240.54Z" fill="white"/>
<path d="M1139.36 1331.66V1090.66L906.337 1036.42V849L1334.66 951.354V1441.17L1164 1504.45L1139.36 1331.66Z" fill="white"/>
<path d="M1007.19 1556.81L1164 1504.64V1324.35L832.495 1422.81L822.799 1556.81H1007.19Z" fill="white"/>
<path d="M673.525 1240.54L478 1233.68V1556.81H822.799L832.495 1422.81H673.525V1240.54Z" fill="white"/>
<path d="M673.83 1737.46L478 1744.32L478 2026.57L907.049 2129L908.013 2128.77V1941.35L907.095 1941.56L673.83 1887.39V1737.46Z" fill="white"/>
<path d="M1140.4 1646.34V1887.34L907.005 1941.58V2129L1336 2026.65V1536.83L1165.07 1473.55L1140.4 1646.34Z" fill="white"/>
<path d="M1008.02 1421.19L1165.07 1473.35V1653.65L833.048 1555.19L823.337 1421.19H1008.02Z" fill="white"/>
<path d="M673.83 1737.46L478 1744.32V1421.19H823.337L833.048 1555.19H673.83V1737.46Z" fill="white"/>
<path d="M252.714 260.6C262.101 263.533 269.361 268.667 274.494 276C279.627 283.333 282.194 291.4 282.194 300.2C282.194 307.24 281.094 313.767 278.894 319.78C276.841 325.793 273.467 331.367 268.774 336.5C264.081 341.633 257.481 345.667 248.974 348.6C240.467 351.533 230.421 353 218.834 353H136.554V184.04H221.034C239.221 184.04 252.861 187.927 261.954 195.7C271.194 203.327 275.814 213.52 275.814 226.28C275.814 234.2 273.834 241.167 269.874 247.18C265.914 253.193 260.194 257.667 252.714 260.6ZM215.974 216.6H181.874V251.58H215.974C220.814 251.58 224.701 249.967 227.634 246.74C230.714 243.513 232.254 239.26 232.254 233.98C232.254 228.7 230.787 224.52 227.854 221.44C225.067 218.213 221.107 216.6 215.974 216.6ZM181.874 320.44H217.954C223.967 320.44 228.514 318.827 231.594 315.6C234.821 312.227 236.434 307.607 236.434 301.74C236.434 295.873 234.821 291.327 231.594 288.1C228.514 284.727 224.114 283.04 218.394 283.04H181.874V320.44ZM392.223 356.52C366.117 356.52 345.143 348.527 329.303 332.54C313.463 316.7 305.543 295.36 305.543 268.52C305.543 241.827 313.463 220.487 329.303 204.5C345.143 188.513 366.117 180.52 392.223 180.52C418.183 180.52 439.083 188.513 454.923 204.5C470.763 220.487 478.683 241.827 478.683 268.52C478.683 295.36 470.763 316.7 454.923 332.54C439.083 348.527 418.183 356.52 392.223 356.52ZM362.963 306.8C370.15 315.307 379.903 319.56 392.223 319.56C404.543 319.56 414.297 315.307 421.483 306.8C428.67 298.587 432.263 285.827 432.263 268.52C432.263 251.36 428.67 238.527 421.483 230.02C414.15 221.66 404.397 217.48 392.223 217.48C380.05 217.48 370.297 221.66 362.963 230.02C355.63 238.673 351.963 251.507 351.963 268.52C351.963 285.533 355.63 298.293 362.963 306.8ZM589.88 356.52C563.773 356.52 542.8 348.527 526.96 332.54C511.12 316.7 503.2 295.36 503.2 268.52C503.2 241.827 511.12 220.487 526.96 204.5C542.8 188.513 563.773 180.52 589.88 180.52C615.84 180.52 636.74 188.513 652.58 204.5C668.42 220.487 676.34 241.827 676.34 268.52C676.34 295.36 668.42 316.7 652.58 332.54C636.74 348.527 615.84 356.52 589.88 356.52ZM560.62 306.8C567.806 315.307 577.56 319.56 589.88 319.56C602.2 319.56 611.953 315.307 619.14 306.8C626.326 298.587 629.92 285.827 629.92 268.52C629.92 251.36 626.326 238.527 619.14 230.02C611.806 221.66 602.053 217.48 589.88 217.48C577.706 217.48 567.953 221.66 560.62 230.02C553.286 238.673 549.62 251.507 549.62 268.52C549.62 285.533 553.286 298.293 560.62 306.8ZM693.709 184.04H838.249V221.88H788.309V353H743.429V221.88H693.709V184.04ZM925.969 356.52C883.436 356.52 858.796 340.68 852.049 309L896.269 303.5C899.496 316.847 910.129 323.52 928.169 323.52C947.236 323.52 956.769 317.58 956.769 305.7C956.769 301.007 955.009 297.34 951.489 294.7C947.969 292.06 942.029 289.933 933.669 288.32L909.689 283.7C892.089 280.18 878.889 274.313 870.089 266.1C861.289 257.74 856.889 246.52 856.889 232.44C856.889 215.573 862.976 202.74 875.149 193.94C887.469 184.993 905.216 180.52 928.389 180.52C948.922 180.52 964.982 184.113 976.569 191.3C988.156 198.487 996.002 209.56 1000.11 224.52L957.209 229.8C953.249 218.213 943.422 212.42 927.729 212.42C910.862 212.42 902.429 217.773 902.429 228.48C902.429 232.88 903.896 236.18 906.829 238.38C909.762 240.58 915.042 242.487 922.669 244.1L942.249 248.28C963.516 252.387 978.842 258.4 988.229 266.32C997.762 274.24 1002.53 285.313 1002.53 299.54C1002.53 317.58 995.782 331.587 982.289 341.56C968.942 351.533 950.169 356.52 925.969 356.52ZM1016.4 184.04H1160.94V221.88H1111V353H1066.12V221.88H1016.4V184.04ZM1325.75 304.16L1334.33 353H1291.65L1286.59 316.04C1285.27 306.067 1282.92 299.393 1279.55 296.02C1276.18 292.793 1270.02 291.18 1261.07 291.18H1231.59V353H1186.71V184.04H1281.75C1297.59 184.04 1309.84 187.853 1318.49 195.48C1327.29 203.107 1331.69 213.74 1331.69 227.38C1331.69 248.94 1319.15 263.607 1294.07 271.38C1312.11 274.9 1322.67 285.827 1325.75 304.16ZM1231.59 256.42H1257.11C1266.06 256.42 1272.88 254.66 1277.57 251.14C1282.41 247.62 1284.83 242.487 1284.83 235.74C1284.83 224.593 1277.13 219.02 1261.73 219.02H1231.59V256.42ZM1522.89 353H1474.71L1467.23 327.7H1402.11L1394.63 353H1348.65L1404.75 184.04H1464.37L1522.89 353ZM1429.39 233.76L1411.79 293.82H1457.11L1439.29 233.76L1434.45 213.96L1429.39 233.76ZM1543.57 184.04H1618.59C1639.27 184.04 1655.4 189.32 1666.99 199.88C1678.57 210.44 1684.37 224.813 1684.37 243C1684.37 260.747 1678.5 274.9 1666.77 285.46C1654.89 296.02 1638.46 301.3 1617.49 301.3H1588.45V353H1543.57V184.04ZM1588.45 265.22H1614.63C1621.96 265.22 1627.61 263.313 1631.57 259.5C1635.67 255.54 1637.73 250.04 1637.73 243C1637.73 228.333 1630.03 221 1614.63 221H1588.45V265.22Z" fill="white"/>
</svg>
