<svg width="1771" height="2500" viewBox="0 0 1771 2500" fill="none" xmlns="http://www.w3.org/2000/svg">
<g clip-path="url(#clip0)">
<path d="M161.2 2299.1L0 491.4H1771L1609.6 2298.8L884.4 2499.8L161.2 2299.1Z" fill="#1572B6"/>
<path d="M885.5 2346.2L1471.5 2183.7L1609.3 639.2H885.5V2346.2Z" fill="#33A9DC"/>
<path d="M885.5 1294.1H1178.9L1199.1 1067.1H885.5V845.5H1441.5L1436.2 905L1381.7 1516H885.5V1294.1Z" fill="white"/>
<path d="M886.7 1869.9H885.7L638.8 1803.2L623 1626.4H400.6L431.7 1974.5L885.9 2100.9H887.2V1869.9H886.7Z" fill="#EBEBEB"/>
<path d="M1160.1 1506.3L1133.4 1803L886.1 1869.7V2100.7L1340.6 1974.7L1343.9 1937.2L1382.5 1506.2H1160.1V1506.3Z" fill="white"/>
<path d="M886.3 845.5V1067.2H350.9L346.3 1017.4L336.2 905L330.9 845.5H886.3ZM885.5 1294.1V1515.8H641.4L637.1 1466L627 1353.6L621.7 1294.1H885.4H885.5Z" fill="#EBEBEB"/>
<path d="M580.847 430.8C535.78 430.8 499.514 416.267 472.047 387.2C444.047 358.4 430.047 319.867 430.047 271.6C430.047 222.533 444.18 183.467 472.447 154.4C500.714 125.333 537.514 110.8 582.847 110.8C622.047 110.8 653.914 120 678.447 138.4C703.247 156.533 719.914 182.933 728.447 217.6L647.647 226.8C638.314 194.8 617.514 178.8 585.247 178.8C562.047 178.8 544.447 186.667 532.447 202.4C520.447 218.133 514.447 240.667 514.447 270C514.447 298.8 520.447 321.467 532.447 338C544.714 354.267 561.78 362.4 583.647 362.4C619.114 362.4 640.98 345.2 649.247 310.8L728.047 320C719.514 354.933 702.447 382 676.847 401.2C650.714 420.933 618.714 430.8 580.847 430.8ZM895.984 430.4C818.651 430.4 773.851 401.6 761.584 344L841.984 334C847.851 358.267 867.184 370.4 899.984 370.4C934.651 370.4 951.984 359.6 951.984 338C951.984 329.467 948.784 322.8 942.384 318C935.984 313.2 925.184 309.333 909.984 306.4L866.384 298C834.384 291.6 810.384 280.933 794.384 266C778.384 250.8 770.384 230.4 770.384 204.8C770.384 174.133 781.451 150.8 803.584 134.8C825.984 118.533 858.251 110.4 900.384 110.4C937.718 110.4 966.918 116.933 987.984 130C1009.05 143.067 1023.32 163.2 1030.78 190.4L952.784 200C945.584 178.933 927.718 168.4 899.184 168.4C868.518 168.4 853.184 178.133 853.184 197.6C853.184 205.6 855.851 211.6 861.184 215.6C866.518 219.6 876.118 223.067 889.984 226L925.584 233.6C964.251 241.067 992.118 252 1009.18 266.4C1026.52 280.8 1035.18 300.933 1035.18 326.8C1035.18 359.6 1022.92 385.067 998.384 403.2C974.118 421.333 939.984 430.4 895.984 430.4ZM1204.97 430.4C1127.64 430.4 1082.84 401.6 1070.57 344L1150.97 334C1156.84 358.267 1176.17 370.4 1208.97 370.4C1243.64 370.4 1260.97 359.6 1260.97 338C1260.97 329.467 1257.77 322.8 1251.37 318C1244.97 313.2 1234.17 309.333 1218.97 306.4L1175.37 298C1143.37 291.6 1119.37 280.933 1103.37 266C1087.37 250.8 1079.37 230.4 1079.37 204.8C1079.37 174.133 1090.44 150.8 1112.57 134.8C1134.97 118.533 1167.24 110.4 1209.37 110.4C1246.7 110.4 1275.9 116.933 1296.97 130C1318.04 143.067 1332.3 163.2 1339.77 190.4L1261.77 200C1254.57 178.933 1236.7 168.4 1208.17 168.4C1177.5 168.4 1162.17 178.133 1162.17 197.6C1162.17 205.6 1164.84 211.6 1170.17 215.6C1175.5 219.6 1185.1 223.067 1198.97 226L1234.57 233.6C1273.24 241.067 1301.1 252 1318.17 266.4C1335.5 280.8 1344.17 300.933 1344.17 326.8C1344.17 359.6 1331.9 385.067 1307.37 403.2C1283.1 421.333 1248.97 430.4 1204.97 430.4Z" fill="white"/>
<path d="M580.847 430.8C535.78 430.8 499.514 416.267 472.047 387.2C444.047 358.4 430.047 319.867 430.047 271.6C430.047 222.533 444.18 183.467 472.447 154.4C500.714 125.333 537.514 110.8 582.847 110.8C622.047 110.8 653.914 120 678.447 138.4C703.247 156.533 719.914 182.933 728.447 217.6L647.647 226.8C638.314 194.8 617.514 178.8 585.247 178.8C562.047 178.8 544.447 186.667 532.447 202.4C520.447 218.133 514.447 240.667 514.447 270C514.447 298.8 520.447 321.467 532.447 338C544.714 354.267 561.78 362.4 583.647 362.4C619.114 362.4 640.98 345.2 649.247 310.8L728.047 320C719.514 354.933 702.447 382 676.847 401.2C650.714 420.933 618.714 430.8 580.847 430.8ZM895.984 430.4C818.651 430.4 773.851 401.6 761.584 344L841.984 334C847.851 358.267 867.184 370.4 899.984 370.4C934.651 370.4 951.984 359.6 951.984 338C951.984 329.467 948.784 322.8 942.384 318C935.984 313.2 925.184 309.333 909.984 306.4L866.384 298C834.384 291.6 810.384 280.933 794.384 266C778.384 250.8 770.384 230.4 770.384 204.8C770.384 174.133 781.451 150.8 803.584 134.8C825.984 118.533 858.251 110.4 900.384 110.4C937.718 110.4 966.918 116.933 987.984 130C1009.05 143.067 1023.32 163.2 1030.78 190.4L952.784 200C945.584 178.933 927.718 168.4 899.184 168.4C868.518 168.4 853.184 178.133 853.184 197.6C853.184 205.6 855.851 211.6 861.184 215.6C866.518 219.6 876.118 223.067 889.984 226L925.584 233.6C964.251 241.067 992.118 252 1009.18 266.4C1026.52 280.8 1035.18 300.933 1035.18 326.8C1035.18 359.6 1022.92 385.067 998.384 403.2C974.118 421.333 939.984 430.4 895.984 430.4ZM1204.97 430.4C1127.64 430.4 1082.84 401.6 1070.57 344L1150.97 334C1156.84 358.267 1176.17 370.4 1208.97 370.4C1243.64 370.4 1260.97 359.6 1260.97 338C1260.97 329.467 1257.77 322.8 1251.37 318C1244.97 313.2 1234.17 309.333 1218.97 306.4L1175.37 298C1143.37 291.6 1119.37 280.933 1103.37 266C1087.37 250.8 1079.37 230.4 1079.37 204.8C1079.37 174.133 1090.44 150.8 1112.57 134.8C1134.97 118.533 1167.24 110.4 1209.37 110.4C1246.7 110.4 1275.9 116.933 1296.97 130C1318.04 143.067 1332.3 163.2 1339.77 190.4L1261.77 200C1254.57 178.933 1236.7 168.4 1208.17 168.4C1177.5 168.4 1162.17 178.133 1162.17 197.6C1162.17 205.6 1164.84 211.6 1170.17 215.6C1175.5 219.6 1185.1 223.067 1198.97 226L1234.57 233.6C1273.24 241.067 1301.1 252 1318.17 266.4C1335.5 280.8 1344.17 300.933 1344.17 326.8C1344.17 359.6 1331.9 385.067 1307.37 403.2C1283.1 421.333 1248.97 430.4 1204.97 430.4Z" fill="white"/>
</g>
<defs>
<clipPath id="clip0">
<rect width="1771" height="2499.8" fill="white"/>
</clipPath>
</defs>
</svg>
