<svg width="1773" height="2500" viewBox="0 0 1773 2500" fill="none" xmlns="http://www.w3.org/2000/svg">
<g clip-path="url(#clip0)">
<path d="M1769.77 490.069L1608.82 2293.12L885.347 2493.68L163.865 2293.39L3.08203 490.069H1769.77Z" fill="#E44D26"/>
<path d="M886.426 2340.37L1471.03 2178.3L1608.57 637.514H886.426V2340.37Z" fill="#F16529"/>
<path d="M573.546 1079.86H886.427V858.691H331.836L337.127 918.026L391.49 1527.51H886.427V1306.34H593.761L573.546 1079.86V1079.86ZM623.394 1638.1H401.372L432.355 1985.37L885.409 2111.14L886.427 2110.86V1880.75L885.458 1881L639.142 1814.49L623.394 1638.1V1638.1Z" fill="#EBEBEB"/>
<path d="M885.665 1527.51H1158.01L1132.33 1814.36L885.658 1880.93V2111.03L1339.07 1985.37L1342.4 1948.01L1394.38 1365.73L1399.77 1306.34H885.665V1527.51ZM885.665 1079.32V1079.86H1419.9L1424.33 1030.15L1434.41 918.026L1439.7 858.691H885.665V1079.33V1079.32Z" fill="white"/>
<path d="M440.897 227.4V111.8H522.497V419H440.897V296.6H338.097V419H256.497V111.8H338.097V227.4H440.897ZM569.116 111.8H831.916V180.6H741.116V419H659.516V180.6H569.116V111.8ZM1076.76 307L1129.56 111.8H1253.16V419H1176.36V203L1177.56 167.8L1168.36 202.6L1105.16 419H1027.16L963.963 203.4L955.162 169.4L955.963 203.4V419H878.763V111.8H1007.96L1056.76 307L1066.36 354.6L1076.76 307ZM1397.97 111.8V349H1531.17V419H1311.97V111.8H1397.97Z" fill="white"/>
</g>
<defs>
<clipPath id="clip0">
<rect width="1773" height="2500" fill="white"/>
</clipPath>
</defs>
</svg>
