<svg width="1773" height="2500" viewBox="0 0 1773 2500" fill="none" xmlns="http://www.w3.org/2000/svg">
<path d="M1769.77 490.069L1608.82 2293.12L885.347 2493.68L163.865 2293.39L3.08203 490.069H1769.77Z" fill="#63A92F"/>
<path d="M886.426 2340.37L1471.03 2178.3L1608.57 637.514H886.426V2340.37Z" fill="#8DBF27"/>
<path d="M1179 1309.6L1199.2 1082.6H885.6V861H1441.6L1381.8 1531.5H1159L1179 1309.6Z" fill="white"/>
<path d="M885.799 1885.4L638.899 1818.7L623.099 1641.9H400.699L431.799 1990L885.999 2116.4H887.299V1885.4H885.799Z" fill="white"/>
<path d="M1160.2 1521.8L1133.5 1818.5L886.199 1885.2V2116.2L1340.7 1990.2L1344 1952.7L1382.6 1521.7H1160.2V1521.8Z" fill="white"/>
<path d="M886.4 861V1082.7H351L346.4 1032.9L331 861H886.4Z" fill="white"/>
<path d="M157.432 360.52C138.219 360.52 123.332 355.24 112.772 344.68C102.066 334.413 96.7122 320.847 96.7122 303.98V293.64H140.052V303.1C140.052 316.153 145.772 322.68 157.212 322.68C168.506 322.68 174.152 316.153 174.152 303.1V188.04H221.452V303.1C221.452 321.14 215.659 335.22 204.072 345.34C192.486 355.46 176.939 360.52 157.432 360.52ZM416.462 357H368.282L360.802 331.7H295.682L288.202 357H242.222L298.322 188.04H357.942L416.462 357ZM322.962 237.76L305.362 297.82H350.682L332.862 237.76L328.022 217.96L322.962 237.76ZM500.813 296.72L530.293 188.04H577.373L523.693 357H468.693L412.593 188.04H461.433L491.793 296.72L496.413 316.52L500.813 296.72ZM747.751 357H699.571L692.091 331.7H626.971L619.491 357H573.511L629.611 188.04H689.231L747.751 357ZM654.251 237.76L636.651 297.82H681.971L664.151 237.76L659.311 217.96L654.251 237.76ZM835.967 360.52C793.434 360.52 768.794 344.68 762.047 313L806.267 307.5C809.494 320.847 820.127 327.52 838.167 327.52C857.234 327.52 866.767 321.58 866.767 309.7C866.767 305.007 865.007 301.34 861.487 298.7C857.967 296.06 852.027 293.933 843.667 292.32L819.687 287.7C802.087 284.18 788.887 278.313 780.087 270.1C771.287 261.74 766.887 250.52 766.887 236.44C766.887 219.573 772.974 206.74 785.147 197.94C797.467 188.993 815.214 184.52 838.387 184.52C858.921 184.52 874.981 188.113 886.567 195.3C898.154 202.487 906.001 213.56 910.107 228.52L867.207 233.8C863.247 222.213 853.421 216.42 837.727 216.42C820.861 216.42 812.427 221.773 812.427 232.48C812.427 236.88 813.894 240.18 816.827 242.38C819.761 244.58 825.041 246.487 832.667 248.1L852.247 252.28C873.514 256.387 888.841 262.4 898.227 270.32C907.761 278.24 912.527 289.313 912.527 303.54C912.527 321.58 905.781 335.587 892.287 345.56C878.941 355.533 860.167 360.52 835.967 360.52ZM1017.35 360.74C992.562 360.74 972.615 352.747 957.509 336.76C942.109 320.92 934.409 299.727 934.409 273.18C934.409 246.193 942.182 224.707 957.729 208.72C973.275 192.733 993.515 184.74 1018.45 184.74C1040.01 184.74 1057.54 189.8 1071.03 199.92C1084.67 209.893 1093.84 224.413 1098.53 243.48L1054.09 248.54C1048.96 230.94 1037.52 222.14 1019.77 222.14C1007.01 222.14 997.329 226.467 990.729 235.12C984.129 243.773 980.829 256.167 980.829 272.3C980.829 288.14 984.129 300.607 990.729 309.7C997.475 318.647 1006.86 323.12 1018.89 323.12C1038.4 323.12 1050.42 313.66 1054.97 294.74L1098.31 299.8C1093.62 319.013 1084.23 333.9 1070.15 344.46C1055.78 355.313 1038.18 360.74 1017.35 360.74ZM1262.17 308.16L1270.75 357H1228.07L1223.01 320.04C1221.69 310.067 1219.35 303.393 1215.97 300.02C1212.6 296.793 1206.44 295.18 1197.49 295.18H1168.01V357H1123.13V188.04H1218.17C1234.01 188.04 1246.26 191.853 1254.91 199.48C1263.71 207.107 1268.11 217.74 1268.11 231.38C1268.11 252.94 1255.57 267.607 1230.49 275.38C1248.53 278.9 1259.09 289.827 1262.17 308.16ZM1168.01 260.42H1193.53C1202.48 260.42 1209.3 258.66 1213.99 255.14C1218.83 251.62 1221.25 246.487 1221.25 239.74C1221.25 228.593 1213.55 223.02 1198.15 223.02H1168.01V260.42ZM1341.39 357H1296.51V188.04H1341.39V357ZM1373.64 188.04H1448.66C1469.34 188.04 1485.48 193.32 1497.06 203.88C1508.65 214.44 1514.44 228.813 1514.44 247C1514.44 264.747 1508.58 278.9 1496.84 289.46C1484.96 300.02 1468.54 305.3 1447.56 305.3H1418.52V357H1373.64V188.04ZM1418.52 269.22H1444.7C1452.04 269.22 1457.68 267.313 1461.64 263.5C1465.75 259.54 1467.8 254.04 1467.8 247C1467.8 232.333 1460.1 225 1444.7 225H1418.52V269.22ZM1532.26 188.04H1676.8V225.88H1626.86V357H1581.98V225.88H1532.26V188.04Z" fill="white"/>
</svg>
