<svg width="1771" height="2500" viewBox="0 0 1771 2500" fill="none" xmlns="http://www.w3.org/2000/svg">
<g clip-path="url(#clip0)">
<path d="M161.2 2299.1L0 491.4H1771L1609.6 2298.8L884.4 2499.8L161.2 2299.1Z" fill="#E6C800"/>
<path d="M885.5 2346.2L1471.5 2183.7L1609.3 639.2H885.5V2346.2Z" fill="#F4E105"/>
<path d="M503.971 1495.98L799.514 1416.13L796.63 1211L253.393 1361.7L238 1495.98H503.971Z" fill="white"/>
<path d="M504.842 1495.45L801 1575.46L798.11 1781L253.744 1630L238.318 1495.45H504.842Z" fill="white"/>
<path d="M1260.55 1837.49L1260.55 1615.16H1153.89V1837.49H1260.55Z" fill="white"/>
<path d="M1260.55 1990L1260.55 1873.91H1153.88L1153.88 1990H1260.55Z" fill="white"/>
<path d="M1055.2 1333.02L929 1333.02L946.611 1085.6L1204.13 996L1204.71 996.198V1160.14L1204.16 1159.96L1064.15 1207.35L1055.2 1333.02Z" fill="white"/>
<path d="M1344.19 1418.21V1207.39L1204.11 1159.95V996L1461.59 1085.53V1514L1359 1569.36L1344.19 1418.21Z" fill="white"/>
<path d="M1264.74 1615.16L1359 1569.53V1411.81L1159.72 1497.94L1153.89 1615.16H1264.74Z" fill="white"/>
<path d="M453.591 92.8H589.991C627.591 92.8 656.924 102.4 677.991 121.6C699.057 140.8 709.591 166.933 709.591 200C709.591 232.267 698.924 258 677.591 277.2C655.991 296.4 626.124 306 587.991 306H535.191V400H453.591V92.8ZM535.191 240.4H582.791C596.124 240.4 606.391 236.933 613.591 230C621.057 222.8 624.791 212.8 624.791 200C624.791 173.333 610.791 160 582.791 160H535.191V240.4ZM937.991 208.4V92.8H1019.59V400H937.991V277.6H835.191V400H753.591V92.8H835.191V208.4H937.991ZM1077.81 92.8H1214.21C1251.81 92.8 1281.14 102.4 1302.21 121.6C1323.28 140.8 1333.81 166.933 1333.81 200C1333.81 232.267 1323.14 258 1301.81 277.2C1280.21 296.4 1250.34 306 1212.21 306H1159.41V400H1077.81V92.8ZM1159.41 240.4H1207.01C1220.34 240.4 1230.61 236.933 1237.81 230C1245.28 222.8 1249.01 212.8 1249.01 200C1249.01 173.333 1235.01 160 1207.01 160H1159.41V240.4Z" fill="white"/>
</g>
<defs>
<clipPath id="clip0">
<rect width="1771" height="2499.8" fill="white"/>
</clipPath>
</defs>
</svg>
