<svg width="1772" height="2500" viewBox="0 0 1772 2500" fill="none" xmlns="http://www.w3.org/2000/svg">
<g clip-path="url(#clip0)">
<path d="M161.213 2299.28L0 491.439H1771.14L1609.73 2298.98L884.471 2500L161.213 2299.28Z" fill="#9B488D"/>
<path d="M885.57 2346.39L1471.62 2183.87L1609.43 639.251H885.57V2346.39Z" fill="#B676A7"/>
<path d="M488.415 1326.65H566.599L555.689 1100.12L396.148 1018.08L395.789 1018.26V1168.37L396.131 1168.2L482.87 1211.59L488.415 1326.65Z" fill="white"/>
<path d="M570.079 1398.79L395.79 1398.79V1543.06L577.026 1543.06L570.079 1398.79Z" fill="white"/>
<path d="M396.058 1398.79L300.152 1398.79L309.194 1211.68L396.06 1168.25V1018.15L236.393 1100.12L216.917 1504.32L215.018 1543.06L396.058 1543.06L396.058 1398.79Z" fill="white"/>
<path d="M297.178 1615.39H215.044L226.506 1842.06L394.106 1924.15L394.483 1923.97V1923.95L394.483 1773.77L394.199 1773.9L394.124 1773.94L303.004 1730.52L297.178 1615.39Z" fill="white"/>
<path d="M394.483 1773.77L394.483 1923.95L561.932 1842.06L577.049 1543.2L494.952 1543.2L485.452 1730.43L394.199 1773.89V1773.9L394.483 1773.77Z" fill="white"/>
<path d="M747.682 1360.5H660.941L673.046 1109.12L850.048 1018.08L850.445 1018.28V1184.85L850.066 1184.67L753.835 1232.81L747.682 1360.5Z" fill="white"/>
<path d="M660.941 1360.5H747.682V1562.68H660.941V1360.5Z" fill="white"/>
<path d="M953.208 1562.68H1039.95L1027.84 1814.06L850.843 1905.1L850.445 1904.9V1738.33L850.824 1738.51L947.056 1690.37L953.208 1562.68Z" fill="white"/>
<path d="M994.392 1828.13L945.196 1746.96L1020.94 1665.94L1125.02 1847.91L1054.2 1924.15L1054.14 1923.59L994.392 1828.13Z" fill="white"/>
<path d="M953.208 1360.59H1039.95L1027.84 1109.14L850.843 1018.08L850.445 1018.28V1184.9L850.824 1184.71L947.056 1232.87L953.208 1360.59Z" fill="white"/>
<path d="M1039.95 1360.59H953.208V1562.83H1039.95V1360.59Z" fill="white"/>
<path d="M747.682 1562.68H660.941L673.046 1814.13L850.048 1905.19L850.445 1904.99L850.445 1738.38L850.066 1738.56L753.835 1690.4L747.682 1562.68Z" fill="white"/>
<path d="M1283.11 1283.16L1274.03 1018.08H1173.86L1191.88 1542.29H1291.66L1287.39 1410.33L1283.11 1283.16Z" fill="white"/>
<path d="M1291.57 1533.79L1303.57 1781.06H1474.12L1469.04 1924.15H1210.41L1208.93 1892.9L1191.57 1533.71H1291.57V1533.79Z" fill="white"/>
<path d="M581.219 384.4C503.885 384.4 459.085 355.6 446.819 298L527.219 288C533.085 312.267 552.419 324.4 585.219 324.4C619.885 324.4 637.219 313.6 637.219 292C637.219 283.467 634.019 276.8 627.619 272C621.219 267.2 610.419 263.333 595.219 260.4L551.619 252C519.619 245.6 495.619 234.933 479.619 220C463.619 204.8 455.619 184.4 455.619 158.8C455.619 128.133 466.685 104.8 488.819 88.8C511.219 72.5333 543.485 64.4 585.619 64.4C622.952 64.4 652.152 70.9333 673.219 84C694.285 97.0667 708.552 117.2 716.019 144.4L638.019 154C630.819 132.933 612.952 122.4 584.419 122.4C553.752 122.4 538.419 132.133 538.419 151.6C538.419 159.6 541.085 165.6 546.419 169.6C551.752 173.6 561.352 177.067 575.219 180L610.819 187.6C649.485 195.067 677.352 206 694.419 220.4C711.752 234.8 720.419 254.933 720.419 280.8C720.419 313.6 708.152 339.067 683.619 357.2C659.352 375.333 625.219 384.4 581.219 384.4ZM1075 224.4C1075 279.067 1056.74 321.467 1020.2 351.6L1067 406.4L1019.8 439.2L979.803 374C960.603 380.933 939.936 384.4 917.803 384.4C870.336 384.4 832.203 369.867 803.403 340.8C774.603 312 760.203 273.2 760.203 224.4C760.203 175.867 774.603 137.067 803.403 108C832.203 78.9333 870.336 64.4 917.803 64.4C965.003 64.4 1003 78.9333 1031.8 108C1060.6 137.067 1075 175.867 1075 224.4ZM864.603 154.4C851.27 170.133 844.603 193.467 844.603 224.4C844.603 255.333 851.27 278.533 864.603 294C877.67 309.467 895.403 317.2 917.803 317.2C923.136 317.2 929.536 316.533 937.003 315.2L888.603 258L936.203 225.2L975.003 288.8C985.403 273.333 990.603 251.867 990.603 224.4C990.603 193.733 984.203 170.667 971.403 155.2C958.603 139.467 940.736 131.6 917.803 131.6C895.67 131.6 877.936 139.2 864.603 154.4ZM1210.04 70.8V308H1343.24V378H1124.04V70.8H1210.04Z" fill="white"/>
</g>
<defs>
<clipPath id="clip0">
<rect width="1771.14" height="2500" fill="white"/>
</clipPath>
</defs>
</svg>
